PathFileType	4	(X/Y/Z)	c:/Users/goper/Files/vsCode/490R/osim_files/C15/C15_Slow_04.trc
DataRate	CameraRate	NumFrames	NumMarkers	Units                	OrigDataRate	OrigDataStartFrame	OrigNumFrames
250.00	250.00	7	36	mm	250.0	2274	3031
                Frame#	Time	LPSIS			LASIS			LTH1			LTH2			LTH3			LTH4			LLFE			LMFE			LSH1			LSH2			LSH3			LSH4			LLMAL			LMMAL			LCAL			LMTP5			LTOE			LMTP1			RPSIS			RASIS			RTH1			RTH2			RTH3			RTH4			RLFE			RMFE			RSH1			RSH2			RSH3			RSH4			RLMAL			RMMAL			RCAL			RMTP1			RTOE			RMTP5		
		X1	Y1	Z1	X2	Y2	Z2	X3	Y3	Z3	X4	Y4	Z4	X5	Y5	Z5	X6	Y6	Z6	X7	Y7	Z7	X8	Y8	Z8	X9	Y9	Z9	X10	Y10	Z10	X11	Y11	Z11	X12	Y12	Z12	X13	Y13	Z13	X14	Y14	Z14	X15	Y15	Z15	X16	Y16	Z16	X17	Y17	Z17	X18	Y18	Z18	X19	Y19	Z19	X20	Y20	Z20	X21	Y21	Z21	X22	Y22	Z22	X23	Y23	Z23	X24	Y24	Z24	X25	Y25	Z25	X26	Y26	Z26	X27	Y27	Z27	X28	Y28	Z28	X29	Y29	Z29	X30	Y30	Z30	X31	Y31	Z31	X32	Y32	Z32	X33	Y33	Z33	X34	Y34	Z34	X35	Y35	Z35	X36	Y36	Z36

2274	9.09200	-2729.07275	1035.60706	298.46719	-2896.90308	1015.92731	358.51721	-2846.89331	622.96533	417.92090	0.00000	0.00000	0.00000	-2896.91699	634.37030	413.24084	-2900.64697	589.26147	402.03900	-2868.13550	503.30051	378.54651	0.00000	0.00000	0.00000	-2864.34570	388.70221	389.81769	-2853.08228	344.37842	392.47003	-2804.70068	397.64709	393.09137	-2799.26709	351.60168	392.60773	-2799.89624	91.89516	324.93054	-2818.78369	118.64096	237.33827	-2737.20630	70.45716	278.88177	-2920.61499	48.42603	346.71024	-2977.93164	71.14930	284.54474	-2940.28687	42.73947	225.53105	-2723.41895	1032.62097	178.67963	-2878.92603	1010.01526	110.29320	-2899.00171	642.50421	40.19393	-2913.44434	597.95239	45.89918	-2962.98804	659.64948	40.76118	-2970.12500	612.37024	41.72270	-2946.23926	513.98956	60.12966	-2953.63550	494.48645	182.09984	-2829.37891	490.60162	58.58969	-2799.61963	460.09415	56.80286	-2864.63672	438.72482	50.49266	-2831.02441	420.13950	44.77785	0.00000	0.00000	0.00000	-2679.78857	244.91135	195.31448	-2583.14844	293.74017	177.50566	-2681.02295	111.73701	182.08516	-2708.96167	103.89835	121.08810	-2635.61011	137.72559	75.26516
2275	9.09600	-2732.19238	1035.85510	298.50357	-2899.92651	1016.05219	358.80383	-2846.93750	621.86853	415.82922	0.00000	0.00000	0.00000	-2898.57886	634.39911	413.18500	-2902.11816	589.18274	402.04898	-2869.28784	503.27902	378.60736	-2875.05078	490.15479	261.15332	-2865.25464	388.68649	389.84589	-2853.94189	344.38489	392.43982	-2805.78564	397.79407	393.25699	-2800.01245	351.51624	392.61966	-2800.07642	91.99037	324.93906	-2818.92944	118.73071	237.31511	-2737.21094	70.50577	278.93091	-2920.65112	48.42496	346.75211	-2977.98657	71.02541	284.57181	-2938.62598	41.66764	226.19798	-2725.48608	1033.08203	177.84846	-2882.12036	1010.58777	110.52822	-2904.73633	643.68988	40.28556	0.00000	0.00000	0.00000	-2968.64258	661.23730	40.99299	-2976.00732	613.96869	41.93813	-2956.47852	516.84265	59.48719	-2959.97852	496.04214	182.39133	-2836.37769	491.23547	60.07075	-2806.65210	459.96194	57.11527	-2871.61597	439.21542	50.94947	-2838.39111	420.41849	45.11884	0.00000	0.00000	0.00000	-2687.65503	243.31544	194.90317	-2591.17700	291.29938	177.26553	-2691.96704	110.82207	182.23622	-2720.45630	103.52266	121.35419	-2646.68921	136.29065	75.15028
2276	9.10000	-2735.49902	1036.01782	298.64542	-2903.17090	1016.09119	359.19934	-2850.03247	622.97833	417.80368	-2852.76196	577.43561	401.19431	-2899.37817	633.84283	411.51538	-2903.46045	588.97650	402.04428	-2870.83325	503.38519	378.82211	-2876.37793	490.04767	261.19147	-2866.14917	388.66248	389.89297	-2854.66821	344.42242	392.44693	-2806.55542	397.85001	393.26141	-2800.97998	351.80560	392.70078	-2799.56665	91.96024	324.54172	-2819.08765	118.83837	237.29959	-2737.26147	70.56223	278.94855	-2920.63110	48.35651	346.79828	-2978.03320	70.89407	284.59641	-2938.65430	41.62491	226.19440	0.00000	0.00000	0.00000	-2885.53711	1011.17865	110.80704	0.00000	0.00000	0.00000	0.00000	0.00000	0.00000	-2974.15527	662.78986	41.19678	-2981.92065	615.61725	42.22267	-2962.90845	518.20599	59.79739	-2966.20728	497.52908	182.65419	-2843.00024	491.13672	60.71649	-2813.65210	459.76117	57.50358	-2878.82153	439.81287	51.22778	-2845.62573	420.56433	45.38567	0.00000	0.00000	0.00000	-2697.49390	242.59747	195.60970	-2599.33203	288.55664	176.99471	-2703.69214	110.13449	182.77115	-2732.13477	103.11105	121.65314	-2657.99756	134.59116	75.11665
2277	9.10400	-2738.60181	1036.23865	298.74292	-2906.12183	1016.12677	359.36411	-2851.64307	623.09454	417.77188	0.00000	0.00000	0.00000	-2901.08813	633.78064	411.46078	-2904.95190	588.86896	402.04004	-2871.65601	503.24573	378.59366	-2877.63086	489.98840	261.22095	-2866.87793	388.61020	389.85455	-2855.49707	344.49127	392.44104	-2807.50684	398.00940	393.23318	-2801.65308	352.03122	392.70309	-2799.74341	92.02357	324.51706	-2819.24854	118.91924	237.27261	-2737.30444	70.62088	278.98016	-2920.68774	48.39346	346.79996	-2978.10181	70.78250	284.60184	-2940.37183	42.65812	225.53818	-2732.37842	1034.08569	179.78493	-2888.78979	1011.71509	110.98013	-2916.03369	645.98230	40.13525	0.00000	0.00000	0.00000	-2979.77832	664.36639	41.39153	-2987.67090	617.22095	42.48758	-2969.13281	519.54791	60.07866	-2972.41797	499.07050	182.94292	-2849.50220	491.40228	60.84266	-2820.58423	459.47348	57.72482	-2885.91064	440.28232	51.46626	-2852.87817	420.70911	45.64819	0.00000	0.00000	0.00000	-2706.39282	241.31018	195.69777	-2607.59473	285.70456	176.62878	-2714.55640	108.87059	182.55380	-2743.95630	102.61214	121.95920	-2669.40747	132.75262	75.03180
2278	9.10800	-2741.67236	1036.50171	298.79480	-2909.35156	1016.27332	359.62787	-2853.22412	623.21667	417.72479	0.00000	0.00000	0.00000	-2902.75049	633.70074	411.40250	-2906.53345	588.85315	402.04648	-2873.11011	503.38818	378.74152	0.00000	0.00000	0.00000	-2867.75757	388.59686	389.84586	-2856.20972	344.46643	392.41757	-2808.39307	398.17261	393.24033	-2802.39331	352.15247	392.73434	-2800.59766	92.24742	324.89050	-2819.42236	119.00458	237.21759	-2737.35059	70.71953	278.93707	-2920.68237	48.37926	346.81326	-2978.19507	70.69041	284.60556	-2940.39331	42.61980	225.52921	-2736.27246	1034.16003	179.04002	-2892.20605	1012.25201	111.20121	-2921.51147	647.00616	40.36860	0.00000	0.00000	0.00000	-2985.17725	665.83618	41.56364	-2993.45215	618.83759	42.73787	-2971.65063	519.40485	61.33432	-2978.50854	500.61169	183.25571	-2856.01978	491.38553	61.12300	-2827.26807	459.00763	57.93695	-2893.01733	440.68076	51.87534	-2860.18286	420.70132	45.91541	0.00000	0.00000	0.00000	-2714.70752	239.44763	195.22000	-2615.87207	282.54578	176.28813	-2726.49829	108.18709	183.19006	-2755.72559	101.93466	122.25829	-2680.98560	130.77080	74.97273
2279	9.11200	-2744.94482	1036.65686	298.85095	-2912.34424	1016.35016	359.77875	-2854.98291	623.40338	417.70523	-2857.13916	577.73120	401.24460	-2905.05957	633.69537	412.47610	-2908.09839	588.74976	402.02097	-2873.95850	503.29831	378.58612	-2880.04199	489.80890	261.33020	-2868.54980	388.54510	389.85922	-2856.87720	344.47391	392.41312	-2809.06470	398.27109	393.17059	-2803.10791	352.29962	392.67932	-2800.71411	92.32886	324.86884	-2819.51685	119.03715	237.13985	-2738.35547	70.44925	278.48770	-2920.72119	48.40819	346.80005	-2978.23169	70.58845	284.59140	-2940.41772	42.59492	225.50980	-2739.61157	1034.04272	179.03279	-2895.48608	1012.72693	111.33287	0.00000	0.00000	0.00000	0.00000	0.00000	0.00000	-2990.69214	667.38763	41.86510	-2999.22290	620.42548	43.04725	-2977.82471	520.70538	61.63564	-2984.57153	502.18399	183.56461	-2864.17822	490.70679	61.60453	-2834.34448	458.67361	58.19933	-2899.95581	440.92914	52.32716	-2867.58325	420.75076	46.14275	-2669.21631	251.75397	121.03924	-2724.71729	238.38518	195.90077	-2624.74097	278.91589	176.12953	-2737.58618	106.65125	182.93434	-2767.86792	101.35065	122.49950	-2692.72876	128.73486	74.91685
2280	9.11600	-2748.10474	1036.81567	298.87286	-2915.58838	1016.45294	359.99292	-2856.63892	623.54181	417.67911	-2858.50684	577.77600	401.06628	-2906.11768	633.65631	411.26981	-2909.59863	588.65692	401.95886	-2875.46094	503.40451	378.76041	-2881.29004	489.75070	261.31558	-2869.25122	388.55197	389.79572	-2857.51953	344.48642	392.39542	-2809.97144	398.46826	393.09082	-2803.86914	352.31454	392.57373	-2800.82202	92.44801	324.80856	-2819.65186	119.11597	237.10490	0.00000	0.00000	0.00000	-2920.74878	48.44127	346.81949	-2978.34106	70.53056	284.60535	-2940.41577	42.55678	225.50439	-2742.22119	1034.89978	180.31903	-2898.79419	1013.15259	111.52650	0.00000	0.00000	0.00000	0.00000	0.00000	0.00000	-2995.93115	668.84534	42.13049	-3004.80835	621.96552	43.32117	-2987.90015	523.52618	61.04360	-2990.49976	503.68591	183.91495	-2870.84204	490.74225	61.62084	-2841.27954	458.21222	58.33911	-2907.06934	441.29910	52.60918	-2874.78296	420.70444	46.39410	0.00000	0.00000	0.00000	-2734.34375	236.63878	195.92310	-2633.00928	275.34222	175.61798	-2749.48950	105.37772	183.07394	-2780.12061	100.70988	122.81237	-2705.79980	126.50483	75.02361
